<?xml version="1.0" standalone="no"?>
<!DOCTYPE svg PUBLIC "-//W3C//DTD SVG 20010904//EN"
 "http://www.w3.org/TR/2001/REC-SVG-20010904/DTD/svg10.dtd">
<svg version="1.0" xmlns="http://www.w3.org/2000/svg"
 width="1024.000000pt" height="1024.000000pt" viewBox="0 0 1024.000000 1024.000000"
 preserveAspectRatio="xMidYMid meet">
<metadata>
Created by potrace 1.16, written by Peter Selinger 2001-2019
</metadata>
<g transform="translate(0.000000,1024.000000) scale(0.100000,-0.100000)"
fill="#ffffff" stroke="none">
<path d="M4865 9030 c-327 -40 -543 -85 -950 -197 -279 -77 -368 -111 -625
-239 -329 -164 -545 -311 -809 -549 -220 -199 -231 -207 -271 -200 -19 3 -63
8 -97 11 -63 6 -63 6 -63 -40 0 -45 8 -54 44 -47 11 2 191 -44 244 -63 51 -18
148 -81 155 -101 4 -8 9 -46 13 -83 6 -67 6 -67 -19 -17 -13 28 -27 63 -31 78
-3 15 -17 33 -31 39 -13 6 -26 21 -29 33 -17 67 -274 26 -293 -46 -3 -12 -14
-19 -28 -19 -13 0 -25 -7 -29 -15 -3 -8 -12 -15 -20 -15 -59 0 -279 -334 -436
-664 -265 -557 -348 -835 -410 -1386 -91 -799 -20 -1411 227 -1970 163 -368
296 -617 433 -810 37 -52 83 -129 102 -170 44 -94 126 -212 156 -225 12 -5 22
-17 22 -25 -1 -8 -63 48 -138 125 -130 133 -209 236 -278 362 -26 47 -33 53
-61 53 -32 0 -33 -1 -33 -42 0 -57 55 -165 137 -269 89 -111 319 -340 364
-361 63 -30 109 5 75 57 -20 30 -20 35 -1 35 21 0 35 32 35 79 0 59 -8 71 -45
71 -37 0 -77 54 -164 221 -22 42 -85 145 -140 228 -103 157 -250 436 -366 696
-283 632 -341 1319 -190 2255 67 412 368 1128 630 1495 84 118 114 147 146
141 47 -9 110 32 139 89 16 33 26 44 28 33 2 -10 9 -18 15 -19 7 0 24 -2 39
-3 36 -2 68 -33 68 -66 0 -14 5 -31 12 -38 9 -9 8 -12 -5 -12 -10 0 -20 7 -23
15 -10 24 -53 17 -149 -24 -87 -37 -90 -40 -93 -73 -4 -46 24 -55 86 -28 25
11 50 20 56 20 6 0 23 6 37 14 26 13 26 13 16 -13 -10 -28 -68 -61 -105 -61
-18 0 -22 -6 -22 -32 0 -70 35 -80 122 -36 54 28 70 32 96 24 118 -34 185 55
185 246 0 147 -14 183 -98 243 -35 25 -66 45 -69 45 -2 0 -16 4 -30 10 -26 9
-24 11 75 102 330 305 516 435 884 620 240 121 315 150 548 217 621 179 1077
246 1507 222 521 -29 1126 -174 1543 -370 331 -156 761 -453 995 -688 l123
-123 -73 -49 c-140 -95 -243 -271 -195 -334 31 -41 144 -107 226 -131 142 -42
300 -212 471 -506 24 -41 45 -77 46 -79 2 -2 15 -3 30 -3 33 0 46 18 39 55 -3
19 -1 27 8 26 106 -13 55 91 -328 664 -36 54 -102 72 -172 47 -21 -8 -11 5 42
55 38 36 70 65 71 65 0 0 22 -27 48 -60 26 -32 60 -67 77 -77 138 -82 526
-830 683 -1318 73 -227 112 -435 146 -764 32 -318 -9 -672 -142 -1220 -152
-629 -442 -1221 -783 -1599 -2 -2 -1 5 2 17 5 21 -1 29 -106 124 -49 44 -66
76 -57 111 10 40 37 49 80 26 39 -19 65 -17 80 8 7 13 12 11 26 -8 19 -25 67
-31 81 -9 34 54 -73 211 -162 238 -124 37 -228 -22 -325 -184 -106 -180 -58
-288 168 -374 44 -17 89 -31 100 -31 51 0 -265 -298 -519 -488 -388 -293 -699
-460 -1109 -597 -538 -180 -873 -238 -1384 -239 -415 -1 -575 17 -925 106
-452 113 -1164 460 -1560 757 -115 87 -295 258 -320 305 -16 30 -25 36 -52 36
-32 0 -33 -1 -33 -42 0 -58 26 -97 129 -196 270 -261 577 -447 1206 -734 374
-171 693 -258 1106 -304 220 -24 764 -24 939 -1 548 75 1170 273 1581 502 520
290 1093 801 1376 1225 270 405 446 843 586 1465 4 15 5 14 6 -6 1 -27 20 -38
53 -31 21 4 33 44 49 166 15 116 9 146 -30 146 -28 0 -28 0 -5 115 46 236 57
635 24 865 -78 551 -167 822 -467 1426 -148 296 -254 465 -363 575 -88 89
-188 199 -292 324 -301 360 -945 785 -1463 963 -259 89 -660 181 -975 222
-236 31 -634 36 -845 10z m3278 -1380 c4 -14 -8 -29 -42 -56 -25 -21 -71 -61
-101 -89 -53 -49 -95 -74 -107 -61 -10 10 108 151 165 197 58 47 74 49 85 9z
m-5665 -311 c-30 -19 -36 -8 -15 24 22 34 22 34 25 9 2 -14 -2 -29 -10 -33z
m5729 19 c11 -13 28 -39 38 -58 10 -19 33 -57 52 -85 35 -50 35 -50 -33 17
-67 65 -141 108 -186 108 -31 0 -17 9 38 24 68 19 68 19 91 -6z m-9 -4414 c12
-8 22 -20 22 -27 0 -8 -3 -8 -12 1 -7 7 -35 12 -64 12 -89 0 -134 -56 -134
-168 0 -69 35 -125 110 -177 55 -38 36 -44 -32 -9 -126 64 -179 119 -155 161
7 12 27 49 46 83 66 117 156 169 219 124z m47 -424 c-3 -5 -11 -10 -16 -10 -6
0 -7 5 -4 10 3 6 11 10 16 10 6 0 7 -4 4 -10z M5143 8693 c-16 -93 -10 -320 9
-339 20 -20 109 -24 132 -5 34 29 49 108 42 230 -8 152 -14 161 -106 161 -69
0 -69 0 -77 -47z m96 -160 c-2 -85 -17 -106 -18 -25 -1 42 3 72 9 72 6 0 10
-21 9 -47z M2086 8305 c-79 -42 -352 -329 -392 -415 -42 -86 -28 -208 32 -291
19 -26 34 -51 34 -57 0 -29 82 -18 94 13 11 30 7 40 -34 83 -36 40 -60 92 -60
134 0 59 254 357 369 434 42 27 42 27 84 6 96 -48 135 31 43 87 -41 25 -127
28 -170 6z M8250 8239 c-19 -11 -56 -42 -82 -67 -43 -42 -48 -51 -48 -92 0
-56 10 -72 45 -72 30 0 45 16 45 49 0 28 87 105 114 101 11 -2 56 -44 100 -95
45 -50 86 -91 93 -92 18 -1 59 -48 84 -97 21 -42 21 -44 5 -86 -10 -24 -31
-55 -47 -70 -36 -33 -43 -112 -10 -121 77 -20 190 185 161 291 -13 47 -79 135
-107 142 -12 3 -36 25 -54 50 -18 25 -63 75 -101 113 -65 64 -70 67 -115 67
-31 0 -61 -8 -83 -21z M2255 8170 c-27 -30 -33 -116 -8 -122 31 -8 50 5 83 54
41 61 35 88 -19 88 -25 0 -44 -7 -56 -20z M8270 7879 c0 -48 85 -175 120 -180
69 -8 73 22 15 120 -48 83 -58 91 -106 91 -26 0 -29 -3 -29 -31z M5183 7675
c-67 -34 -87 -65 -88 -137 0 -68 11 -82 76 -99 112 -30 238 62 215 156 -5 20
-13 25 -39 26 -17 1 -24 3 -15 6 20 5 31 33 22 57 -10 27 -109 22 -171 -9z
m127 -66 c0 -34 -66 -89 -109 -89 -29 0 -26 21 7 53 39 38 102 60 102 36z
M6570 7497 c0 -20 8 -39 20 -50 14 -12 20 -29 20 -57 0 -31 4 -40 18 -41 51
-4 62 8 62 71 0 70 -29 110 -80 110 -39 0 -40 -1 -40 -33z M3802 7079 c-378
-51 -613 -197 -920 -572 -58 -71 -154 -177 -213 -235 -135 -132 -136 -135
-145 -378 -7 -181 -7 -181 31 -222 85 -95 246 -142 570 -167 256 -20 393 -39
671 -91 201 -38 201 -38 192 -74 -6 -19 -11 -36 -13 -38 -1 -1 -49 4 -106 13
-196 28 -394 54 -544 69 -82 9 -191 20 -242 26 -50 5 -144 10 -207 10 -116 0
-116 0 -116 -34 0 -41 3 -42 170 -51 63 -4 189 -15 280 -26 91 -11 206 -24
255 -30 50 -6 191 -26 315 -46 292 -46 289 -47 290 21 0 51 21 108 34 91 23
-30 133 -48 246 -39 58 4 162 8 232 8 127 1 127 1 188 -59 90 -89 103 -131
104 -320 1 -282 -37 -371 -176 -421 -64 -23 -471 -26 -511 -4 -74 42 -160 206
-198 384 -41 190 -56 226 -92 226 -18 0 -48 4 -67 10 -19 5 -138 23 -265 39
-126 17 -306 42 -400 56 -243 37 -252 38 -258 28 -8 -13 11 -870 23 -1053 16
-234 8 -213 115 -328 135 -145 135 -146 41 -137 -76 7 -76 7 -76 -43 0 -60 14
-67 96 -50 62 12 84 7 84 -22 0 -75 -117 -160 -218 -160 -98 0 -323 177 -347
271 -6 23 4 39 71 115 102 118 105 126 98 276 -7 169 -7 168 -49 168 -35 0
-35 0 -35 -94 0 -163 -4 -177 -78 -259 -90 -100 -102 -122 -102 -188 0 -79 35
-143 125 -227 113 -106 203 -147 319 -147 111 0 192 28 247 85 36 37 36 37
123 19 48 -11 223 -39 389 -64 602 -88 726 -106 937 -140 441 -71 944 -125
1160 -125 76 0 76 0 89 -47 31 -118 271 -263 372 -224 13 4 53 12 89 16 79 8
201 40 252 66 51 26 75 76 83 176 7 82 7 82 48 98 66 26 417 215 479 257 32
21 65 52 73 68 9 17 21 30 28 30 6 0 35 18 64 40 42 32 60 39 92 37 63 -2 126
66 102 110 -11 22 6 63 19 44 8 -14 31 -15 83 -6 46 9 52 -11 7 -28 -25 -9
-30 -17 -30 -44 0 -67 85 -62 143 6 33 39 34 61 5 112 -24 44 -54 52 -189 53
-76 1 -76 1 -182 -101 -58 -56 -119 -112 -136 -124 -22 -16 -31 -31 -31 -51 0
-23 -4 -28 -26 -28 -14 0 -44 -13 -67 -28 -135 -93 -504 -273 -617 -303 -68
-17 -118 -22 -252 -24 -198 -3 -241 -16 -246 -73 -4 -42 10 -60 54 -68 19 -3
43 -17 53 -30 10 -12 30 -26 44 -30 21 -5 27 -12 27 -33 0 -15 5 -32 12 -39
20 -20 -51 -14 -97 8 -23 11 -71 47 -105 79 -63 59 -63 59 -57 108 8 72 2 77
-84 69 -146 -13 -712 39 -1114 104 -71 11 -251 39 -400 60 -148 22 -342 51
-430 65 -88 13 -230 34 -315 45 -85 11 -205 30 -266 42 -111 21 -111 21 -117
98 -6 98 -14 113 -137 245 -56 61 -106 119 -110 131 -15 38 -30 341 -37 732
l-6 384 59 -7 c32 -3 102 -13 154 -20 52 -8 187 -26 300 -40 113 -14 237 -32
277 -41 83 -18 77 -8 113 -184 52 -253 148 -409 275 -446 77 -22 476 -14 562
11 166 49 206 125 224 421 15 257 -8 367 -97 464 -30 32 -54 61 -54 66 0 5 7
-1 15 -14 40 -55 156 -96 310 -107 81 -6 169 -18 350 -46 314 -49 951 -76
1057 -45 96 27 93 21 118 340 12 142 50 306 99 419 75 174 314 441 479 534
131 75 240 28 326 -140 39 -75 57 -90 96 -80 38 10 35 47 -12 134 -84 159
-155 209 -299 209 -140 0 -214 -43 -404 -234 -255 -256 -346 -459 -379 -847
-9 -102 -16 -196 -16 -210 0 -38 -54 -49 -232 -49 -270 0 -578 25 -871 71 -70
10 -192 26 -270 34 -210 21 -251 39 -306 137 -29 50 -29 50 -2 93 15 23 36 69
46 101 22 64 72 119 117 129 29 7 43 32 32 59 -4 12 -19 16 -54 16 -56 0 -133
-49 -138 -88 -2 -12 -9 -22 -17 -22 -7 0 -18 -19 -24 -42 -17 -68 -28 -74 -23
-14 6 74 -5 139 -27 165 -16 18 -17 27 -8 51 19 49 -72 199 -122 201 -22 1 26
20 63 25 30 4 78 37 221 152 83 67 99 85 93 104 -11 33 270 235 400 288 42 17
95 39 117 49 22 10 57 22 77 25 71 13 63 76 -11 76 -25 0 -54 7 -65 15 -32 24
-94 27 -286 12 -102 -8 -187 -11 -190 -7 -11 17 -120 39 -227 46 -113 7 -113
7 -113 -29 0 -41 5 -43 147 -61 l92 -11 -102 -80 c-56 -44 -142 -109 -192
-144 -179 -127 -198 -144 -239 -220 -22 -39 -43 -71 -48 -71 -4 0 -8 -20 -8
-44 0 -96 80 -55 145 75 21 41 24 44 200 168 77 55 165 121 195 147 134 116
164 127 360 139 95 6 95 6 55 -13 -112 -53 -249 -150 -385 -272 -119 -106
-336 -271 -393 -299 -48 -23 -53 -24 -353 -22 -304 2 -304 2 -304 -33 0 -47
21 -51 268 -51 167 0 191 -2 186 -15 -3 -8 -9 -34 -11 -57 -7 -58 -18 -64 -89
-53 -32 6 -101 10 -151 10 -93 0 -93 0 -93 -35 0 -39 -17 -34 190 -59 129 -16
205 -10 222 17 4 7 8 33 8 58 0 100 21 120 100 100 19 -5 47 -12 62 -15 31 -7
84 -78 73 -96 -5 -8 -22 -10 -46 -6 -22 3 -57 9 -78 12 -57 9 -81 -8 -81 -55
0 -39 0 -39 73 -56 41 -10 98 -16 130 -14 57 4 57 4 57 -58 0 -61 -1 -63 -25
-63 -62 0 -105 -53 -105 -129 0 -42 -53 -24 -62 22 -4 20 -17 56 -29 78 -20
41 -20 41 -67 35 -26 -4 -82 -9 -124 -12 -78 -6 -78 -6 -78 -39 0 -39 14 -45
111 -45 76 0 79 -3 104 -78 18 -57 14 -127 -9 -135 -8 -3 -51 -8 -97 -11 -84
-7 -84 -7 -31 14 56 23 77 48 67 81 -8 25 -51 23 -188 -9 -95 -23 -84 -24
-608 67 -64 11 -179 25 -255 30 -447 33 -562 58 -683 149 -34 25 -34 25 -27
169 4 79 11 156 17 171 5 15 61 77 123 137 62 61 160 169 218 240 177 220 374
390 531 460 199 87 550 121 662 62 40 -21 40 -21 -15 -29 -30 -4 -122 -7 -205
-5 -150 2 -150 2 -266 -54 -258 -125 -450 -296 -626 -559 -39 -58 -82 -116
-97 -129 -34 -31 -37 -96 -6 -104 23 -6 60 2 60 13 0 4 15 22 33 41 18 19 68
86 112 149 144 208 349 391 559 498 111 57 111 57 286 55 96 -2 210 2 254 8
57 7 92 7 127 -1 61 -15 155 2 164 29 12 39 -3 48 -88 53 -82 4 -82 4 -152 61
-42 34 -90 63 -120 73 -62 19 -282 27 -383 13z m916 -1664 c-2 -1 -17 0 -34 2
-26 4 -33 10 -37 36 -4 18 -9 42 -13 55 -5 16 -2 22 9 22 9 0 22 6 29 13 35
35 43 26 46 -51 2 -41 2 -76 0 -77z m-171 23 c-3 -8 -6 -5 -6 6 -1 11 2 17 5
13 3 -3 4 -12 1 -19z m2073 -2302 c0 -61 -27 -92 -98 -112 -31 -9 -63 -19 -69
-21 -8 -3 -13 4 -13 18 0 13 -9 39 -21 58 -33 54 -20 85 34 77 23 -3 67 1 97
8 30 8 58 15 63 15 4 1 7 -19 7 -43z m-323 12 c-3 -8 -6 -5 -6 6 -1 11 2 17 5
13 3 -3 4 -12 1 -19z M4470 6805 c-41 -14 -112 -27 -190 -34 -69 -6 -179 -22
-245 -35 -66 -14 -144 -28 -172 -32 -52 -6 -53 -7 -53 -39 0 -53 42 -55 255
-14 55 10 168 26 252 33 160 16 293 56 307 93 22 56 -39 67 -154 28z M5760
6797 c0 -33 3 -37 33 -41 25 -4 529 -25 685 -29 43 -1 64 28 44 60 -16 25
-113 34 -434 40 -328 6 -328 6 -328 -30z M7043 6801 c-97 -27 -215 -75 -283
-116 -86 -52 -187 -95 -224 -95 -74 0 -306 -240 -306 -316 0 -21 -11 -40 -36
-65 -56 -54 -87 -112 -113 -214 -10 -40 -10 -40 -161 -36 -150 3 -150 3 -150
-32 0 -42 12 -47 123 -47 43 0 99 -5 123 -11 46 -12 46 -12 40 -48 -11 -71
-26 -248 -32 -398 -8 -166 -9 -161 46 -153 23 3 21 -1 47 172 32 218 44 348
33 369 -10 17 2 76 13 72 27 -10 42 8 98 120 93 184 140 251 262 371 228 224
482 351 703 351 110 0 111 0 196 -42 111 -56 200 -147 253 -260 40 -86 38 -82
109 -203 181 -308 183 -316 130 -372 -91 -95 -281 -215 -391 -248 -39 -12 -43
-16 -43 -45 0 -46 29 -51 120 -20 197 67 411 226 442 327 19 63 -19 156 -152
373 -37 61 -92 162 -123 225 -87 179 -181 271 -335 328 -94 35 -284 41 -389
13z M5555 6644 c-11 -2 -55 -6 -97 -9 -78 -7 -78 -7 -78 -40 0 -43 -18 -41
343 -40 256 1 310 4 318 16 11 17 11 30 1 45 -13 20 -399 42 -487 28z M6744
6478 c-40 -42 -155 -177 -222 -260 -106 -133 -160 -284 -173 -483 -5 -82 -14
-193 -20 -246 -11 -96 -11 -96 -50 -108 -35 -11 -39 -15 -39 -46 0 -41 37 -54
105 -35 85 24 108 113 129 507 5 103 58 237 93 239 13 1 25 4 27 5 37 58 116
199 116 209 0 7 34 57 75 112 41 54 75 103 75 108 0 56 -61 55 -116 -2z M7710
6105 c0 -20 5 -46 12 -58 6 -12 10 -41 9 -64 -2 -47 12 -56 64 -39 54 17 60
63 17 141 -24 45 -31 50 -64 53 -38 3 -38 3 -38 -33z M7148 5948 c-36 -51 -87
-131 -113 -178 -82 -145 -106 -179 -153 -220 -24 -22 -49 -40 -53 -40 -21 0
-9 -68 13 -73 58 -16 135 48 211 173 28 47 90 144 137 215 107 160 113 171
105 195 -5 15 -15 20 -44 20 -36 0 -40 -4 -103 -92z M5120 5855 c0 -19 1 -35
3 -35 1 -1 52 -7 112 -14 61 -8 207 -28 325 -45 461 -65 454 -65 465 -30 15
47 1 55 -113 69 -59 6 -190 25 -292 41 -205 31 -364 49 -446 49 -54 0 -54 0
-54 -35z M3100 5823 c1 -79 149 -135 150 -57 0 7 -15 30 -32 52 -29 36 -38 41
-75 41 -43 1 -43 1 -43 -36z M7538 5777 c-62 -29 -67 -35 -68 -64 0 -50 40
-53 136 -10 81 37 99 55 89 87 -10 31 -76 25 -157 -13z M4097 5643 c-4 -3 -7
-23 -7 -44 0 -32 5 -41 28 -53 106 -55 212 -40 186 27 -3 9 -30 23 -59 31 -29
9 -58 23 -65 31 -12 15 -71 21 -83 8z M5430 5527 c0 -44 -3 -43 229 -57 230
-14 264 -7 246 50 -6 19 -50 24 -322 36 -153 7 -153 7 -153 -29z M7695 5412
c-5 -5 -68 -15 -139 -21 -199 -19 -319 -63 -643 -235 -250 -133 -270 -138
-593 -137 -140 0 -256 4 -257 8 0 4 -4 20 -7 36 -4 15 -13 27 -22 27 -8 0 -17
7 -21 16 -5 13 -19 14 -97 8 -92 -6 -243 5 -411 32 -126 20 -335 19 -335 -1 0
-8 -7 -15 -15 -15 -23 0 -35 -43 -35 -121 0 -86 8 -102 62 -124 67 -26 292
-57 508 -70 96 -5 220 -17 328 -31 42 -5 42 -5 41 -617 0 -337 -4 -632 -7
-657 -7 -45 -7 -45 -110 -41 -102 3 -102 3 -102 -32 0 -40 23 -49 168 -64 89
-9 115 -4 128 24 5 10 10 315 11 678 2 363 5 669 8 681 4 20 6 21 92 8 124
-19 192 -18 233 5 31 16 38 17 67 5 71 -30 149 -8 235 67 94 82 515 285 715
345 94 28 111 42 97 78 -17 44 -196 -2 -444 -116 -176 -81 -173 -68 5 21 206
102 304 131 484 142 84 5 155 8 157 7 2 -2 -1 -87 -7 -188 -5 -102 -11 -383
-12 -625 -2 -483 -2 -481 58 -565 67 -93 80 -129 59 -167 -31 -58 -225 -228
-269 -237 -4 0 -16 23 -27 52 -18 49 -21 52 -55 52 -36 0 -36 0 -30 -54 12
-116 63 -162 151 -136 54 16 186 111 248 179 123 134 121 195 -15 405 -32 50
-32 50 -31 504 1 250 7 534 14 631 14 192 11 214 -35 231 -37 14 -139 23 -150
12z m-686 -326 c-10 -9 -169 -86 -169 -81 0 6 151 84 164 85 5 0 7 -2 5 -4z
m-1531 -31 c106 -18 404 -38 454 -30 32 6 38 4 38 -11 0 -68 55 -113 111 -91
13 5 104 10 201 11 195 1 191 2 168 -58 -9 -26 -9 -26 -160 -22 -82 3 -154 7
-159 10 -10 7 -255 30 -416 41 -168 11 -447 46 -482 60 -35 15 -44 46 -23 86
14 24 142 27 268 4z m1327 -75 c-3 -5 -14 -10 -23 -9 -14 0 -13 2 3 9 27 11
27 11 20 0z m-65 -35 c-39 -41 -130 -100 -139 -89 -5 5 -7 23 -4 40 4 28 9 31
81 51 43 11 79 21 81 22 3 0 -6 -10 -19 -24z M1592 5233 c-20 -8 -42 -59 -42
-98 0 -63 23 -102 68 -116 132 -39 223 99 130 199 -21 21 -116 31 -156 15z
m91 -97 c7 -16 -1 -26 -20 -26 -7 0 -13 9 -13 20 0 23 25 27 33 6z M4280 5213
c-159 -11 -155 -5 -155 -268 0 -205 10 -251 68 -313 91 -98 368 -121 502 -43
71 41 101 176 75 338 -17 110 -93 248 -152 279 -26 13 -201 17 -338 7z m292
-108 c92 -86 141 -316 86 -405 -23 -36 -96 -64 -168 -64 -137 1 -234 55 -262
146 -16 55 -16 304 0 320 13 13 115 24 237 27 73 1 83 -1 107 -24z M4437 4953
c-15 -14 -8 -133 8 -133 8 0 15 -4 15 -10 0 -5 -22 -10 -50 -10 -50 0 -50 0
-50 -34 0 -45 64 -72 126 -53 70 21 86 96 21 98 -18 0 -25 3 -17 6 28 11 42
81 24 127 -6 16 -64 23 -77 9z M2680 4661 c0 -280 -1 -276 52 -263 28 7 31 35
32 262 0 250 -2 260 -50 260 -34 0 -34 0 -34 -259z M3080 4595 c0 -111 1 -112
50 -105 25 3 30 21 30 102 0 98 -4 108 -46 108 -34 0 -34 0 -34 -105z M6450
4480 c0 -118 2 -140 15 -140 11 0 15 -12 15 -50 0 -51 5 -57 50 -50 32 5 35
57 13 275 -10 96 -14 105 -59 105 -34 0 -34 0 -34 -140z M7123 4421 c6 -48 5
-50 -24 -60 -38 -13 -44 -75 -7 -84 34 -9 117 12 128 33 14 27 12 85 -4 125
-14 32 -19 35 -57 35 -42 0 -42 0 -36 -49z M4290 4296 c0 -34 2 -35 54 -47 29
-6 82 -10 116 -7 63 4 63 4 57 -124 -5 -126 -5 -129 16 -137 57 -21 67 1 67
146 0 139 -3 153 -35 153 -14 0 -26 8 -30 19 -8 25 -33 31 -147 31 -98 0 -98
0 -98 -34z M5950 3915 c0 -264 1 -285 18 -286 29 -2 47 2 54 14 9 14 11 519 2
541 -4 10 -18 16 -40 16 -34 0 -34 0 -34 -285z M5100 3812 c0 -32 4 -39 28
-49 15 -7 46 -23 70 -36 64 -37 114 -7 83 51 -13 25 -112 72 -151 72 -28 0
-30 -3 -30 -38z M2808 3803 c-54 -63 -53 -137 2 -187 22 -20 48 -37 58 -37 71
-5 82 34 26 85 -40 36 -41 63 -4 73 25 7 34 36 20 63 -14 26 -80 28 -102 3z
M4550 3648 c0 -41 8 -44 195 -77 61 -11 130 -24 155 -30 25 -5 90 -17 145 -26
55 -9 156 -28 225 -41 185 -37 373 -64 398 -57 26 6 37 35 23 61 -7 14 -26 21
-68 26 -66 7 -279 45 -665 116 -147 28 -299 53 -338 56 -70 7 -70 7 -70 -28z
M6620 3443 c-41 -14 -95 -25 -119 -24 -51 1 -61 -8 -61 -60 0 -51 22 -54 153
-18 156 42 187 62 172 110 -9 26 -53 24 -145 -8z M2200 3047 c-35 -17 -60 -73
-60 -134 0 -56 8 -66 51 -65 18 0 29 -4 29 -13 0 -7 25 -23 55 -35 49 -20 55
-26 55 -51 0 -17 5 -29 13 -29 7 0 22 -6 33 -14 18 -14 18 -16 -18 -53 -31
-32 -38 -46 -38 -80 0 -27 -5 -43 -15 -47 -9 -3 -15 -18 -15 -40 0 -53 36 -57
125 -11 228 116 252 292 65 469 -109 102 -208 139 -280 103z m120 -107 c60
-38 162 -145 179 -187 8 -20 10 -43 6 -60 -8 -28 -8 -28 -15 4 -8 35 -24 60
-53 81 -10 8 -29 31 -42 52 -26 41 -68 60 -132 60 -36 0 -40 10 -23 54 12 33
23 33 80 -4z M2100 2800 c0 -16 -7 -20 -30 -20 -45 0 -43 -60 5 -126 19 -27
50 -70 68 -96 33 -48 53 -60 87 -51 46 12 25 82 -52 176 -22 26 -35 47 -30 47
12 0 72 -67 72 -81 0 -32 85 -30 96 3 6 21 -54 117 -95 149 -35 28 -121 27
-121 -1z M8490 2563 c-82 -150 -180 -266 -238 -279 -51 -12 -92 -51 -92 -88 0
-47 27 -52 104 -19 131 55 207 136 297 321 57 117 58 142 4 142 -31 0 -36 -5
-75 -77z M4388 2523 c-86 -69 -80 -145 9 -108 66 28 129 100 118 135 -11 36
-63 25 -127 -27z"/>
</g>
</svg>
